<?xml version="1.0" encoding="UTF-8"?>
<svg width="512" height="512" viewBox="0 0 512 512" fill="none" xmlns="http://www.w3.org/2000/svg">
  <circle cx="256" cy="256" r="256" fill="white"/>
  <path d="M256 0C114.6 0 0 114.6 0 256s114.6 256 256 256 256-114.6 256-256S397.4 0 256 0zm0 64c105.9 0 192 86.1 192 192s-86.1 192-192 192S64 361.9 64 256 150.1 64 256 64z" fill="#E5E7EB"/>
  <path d="M256 64v192h192c0-105.9-86.1-192-192-192z" fill="#3B82F6"/>
  <path d="M448 256H256v192c105.9 0 192-86.1 192-192z" fill="#EF4444"/>
  <path d="M256 448V256H64c0 105.9 86.1 192 192 192z" fill="#22C55E"/>
  <path d="M64 256h192V64C150.1 64 64 150.1 64 256z" fill="#F59E0B"/>
</svg>